<?xml version="1.0" encoding="utf-8"?>
<!-- Generator: Adobe Illustrator 22.1.0, SVG Export Plug-In . SVG Version: 6.00 Build 0)  -->
<svg version="1.1" id="Layer_1" xmlns="http://www.w3.org/2000/svg" xmlns:xlink="http://www.w3.org/1999/xlink" x="0px" y="0px"
	 viewBox="0 0 512 512" style="enable-background:new 0 0 512 512;" xml:space="preserve">
<g>
	<path d="M256,31C131.7,31,31,131.7,31,256s100.7,225,225,225s225-100.7,225-225S380.3,31,256,31z M437.5,256
		c0,20.4-3.5,40.1-9.8,58.4h-18.4c-3.9,0-7.6-1.5-10.3-4.4l-29-29.6c-4.1-4.2-4.1-11,0.1-15.2l11.3-11.3v-7.9c0-2.7-1.1-5.4-3-7.3
		l-8.5-8.5c-1.9-1.9-4.5-3-7.3-3H348c-5.6,0-10.3-4.6-10.3-10.3c0-2.7,1.1-5.4,3-7.3l8.5-8.5c1.9-1.9,4.5-3,7.3-3h29
		c5.6,0,10.3-4.6,10.3-10.3v-8.5c0-5.6-4.6-10.3-10.3-10.3h-33.3c-8,0-14.5,6.5-14.5,14.5v4.1c0,6.3-4,11.8-9.9,13.8l-28.7,9.5
		c-3,1-5,3.7-5,6.9v2c0,4-3.3,7.3-7.3,7.3h-14.5c-4,0-7.3-3.3-7.3-7.3s-3.3-7.3-7.3-7.3h-2.8c-2.7,0-5.3,1.5-6.5,4l-8.5,17
		c-2.4,4.9-7.4,8-13,8H207c-8,0-14.5-6.5-14.5-14.5v-23c0-3.8,1.5-7.5,4.3-10.3l18.2-18.2c4.2-4.2,6.5-9.9,6.5-15.9
		c0-3.1,2-5.9,5-6.9l36.3-12.1c1.5-0.5,2.9-1.4,4-2.4l24.3-24.3c1.9-1.9,3-4.5,3-7.3c0-5.6-4.6-10.3-10.3-10.3h-18.8l-14.5,14.5v7.3
		c0,4-3.3,7.3-7.3,7.3h-14.5c-4,0-7.3-3.3-7.3-7.3v-18.1c0-2.3,1.1-4.4,2.9-5.8l26.2-19.7c1.7-0.1,3.4-0.3,5.2-0.3
		C356.1,74.5,437.5,155.9,437.5,256z M149,159c0-2.7,1.1-5.4,3-7.3l23-23c1.9-1.9,4.5-3,7.3-3c5.6,0,10.3,4.6,10.3,10.3v14.5
		c0,2.7-1.1,5.4-3,7.3l-8.5,8.5c-1.9,1.9-4.5,3-7.3,3h-14.5C153.7,169.3,149,164.6,149,159z M265.2,437v-6.4c0-8-6.5-14.5-14.5-14.5
		h-18.3c-9.8,0-24.2-4.8-32.1-10.7l-20.1-15.2c-10.4-7.8-16.5-20.1-16.5-33v-21.7c0-14.5,7.6-27.9,20.1-35.4l38.9-23.3
		c6.4-3.8,13.8-5.9,21.2-5.9h28.3c9.9,0,19.4,3.5,26.9,9.9l39.2,33.7h16.6c7.7,0,15.1,3.1,20.5,8.5l15.7,15.7
		c3.1,3.1,7.3,4.8,11.7,4.8h12.2C385.4,396.9,329.7,433.7,265.2,437L265.2,437z"/>
</g>
</svg>
